<?xml version="1.0" standalone="no"?><!DOCTYPE svg PUBLIC "-//W3C//DTD SVG 1.1//EN" "http://www.w3.org/Graphics/SVG/1.1/DTD/svg11.dtd"><svg t="1680083850797" class="icon" viewBox="0 0 1024 1024" version="1.1" xmlns="http://www.w3.org/2000/svg" p-id="5218" xmlns:xlink="http://www.w3.org/1999/xlink" width="200" height="200"><path d="M387.2 629.344 182.752 290.016C139.856 353.44 114.784 429.84 114.784 512c0 40.832 6.208 80.24 17.712 117.344L387.2 629.344z" p-id="5219" fill="#e6e6e6"></path><path d="M473.104 343.584l398.528 0C820.448 234.72 721.28 152.784 601.52 125.088L473.104 343.584z" p-id="5220" fill="#e6e6e6"></path><path d="M345.168 466.56 550.784 116.704c-12.768-1.248-25.696-1.92-38.784-1.92-118.432 0-224.848 52.16-297.68 134.64L345.168 466.56z" p-id="5221" fill="#e6e6e6"></path><path d="M428 896.72l125.792-219.376L150.976 677.344c52.832 114.896 158.864 200.384 286.4 224.752L428 896.72z" p-id="5222" fill="#e6e6e6"></path><path d="M636.192 391.584 836.976 740c45.456-64.592 72.256-143.2 72.256-228 0-41.968-6.592-82.416-18.72-120.416L636.192 391.584z" p-id="5223" fill="#e6e6e6"></path><path d="M677.12 558.768 477.104 907.6c11.504 1.008 23.136 1.616 34.896 1.616 115.744 0 220.048-49.776 292.72-129.024L677.12 558.768z" p-id="5224" fill="#e6e6e6"></path></svg>