<?xml version="1.0" standalone="no"?><!DOCTYPE svg PUBLIC "-//W3C//DTD SVG 1.1//EN" "http://www.w3.org/Graphics/SVG/1.1/DTD/svg11.dtd"><svg t="1680150458219" class="icon" viewBox="0 0 1025 1024" version="1.1" xmlns="http://www.w3.org/2000/svg" p-id="2832" xmlns:xlink="http://www.w3.org/1999/xlink" width="200.1953125" height="200"><path d="M779 691.8c-2.6 0-5 0-7.6-0.2-2.6-0.2-5-0.4-7.6-0.6-2.6-0.2-5-0.6-7.6-1-2.4-0.4-5-0.8-7.4-1.2-2.4-0.4-5-1-7.4-1.6-2.4-0.6-4.8-1.2-7.2-2l-7.2-2.4c-2.4-0.8-4.8-1.8-7-2.8-2.4-1-4.6-2-7-3-2.2-1-4.6-2.2-6.8-3.4s-4.4-2.4-6.6-3.8c-2.2-1.2-4.2-2.6-6.4-4-2-1.4-4.2-2.8-6.2-4.4-2-1.4-4-3-6-4.6-2-1.6-3.8-3.2-5.8-5-1.8-1.6-3.6-3.4-5.4-5.2-1.8-1.8-3.6-3.6-5.2-5.4-1.6-1.8-3.4-3.8-5-5.6-1.6-2-3.2-4-4.6-6-1.6-2-3-4-4.4-6.2-1.4-2-2.8-4.2-4-6.4-1.2-2.2-2.6-4.4-3.8-6.6-1.2-2.2-2.4-4.4-3.4-6.8-1-2.2-2.2-4.6-3-6.8-1-2.4-1.8-4.6-2.8-7l-2.4-7.2c-0.8-2.4-1.4-4.8-2-7.2-0.6-2.4-1.2-4.8-1.6-7.4-0.4-2.4-1-5-1.2-7.4-0.4-2.4-0.6-5-1-7.4-0.2-2.4-0.4-5-0.6-7.6-0.2-2.6-0.2-5-0.2-7.6 0-2.6 0-5 0.2-7.6 0.2-2.6 0.4-5 0.6-7.6 0.2-2.4 0.6-5 1-7.4 0.4-2.4 0.8-5 1.2-7.4 0.4-2.4 1-5 1.6-7.4 0.6-2.4 1.2-4.8 2-7.2l2.4-7.2c0.8-2.4 1.8-4.8 2.8-7 1-2.4 2-4.6 3-6.8s2.2-4.6 3.4-6.8c1.2-2.2 2.4-4.4 3.8-6.6 1.2-2.2 2.6-4.2 4-6.4 1.4-2 2.8-4.2 4.4-6.2 1.6-2 3-4 4.6-6 1.6-2 3.2-3.8 5-5.6 1.6-1.8 3.4-3.6 5.2-5.4 1.8-1.8 3.6-3.6 5.4-5.2 1.8-1.6 3.8-3.4 5.8-5s4-3.2 6-4.6c2-1.4 4-3 6.2-4.4 2-1.4 4.2-2.8 6.4-4 2.2-1.2 4.4-2.6 6.6-3.8 2.2-1.2 4.4-2.4 6.8-3.4s4.6-2 7-3c2.4-1 4.6-1.8 7-2.8s4.8-1.6 7.2-2.4c2.4-0.8 4.8-1.4 7.2-2 2.4-0.6 5-1.2 7.4-1.6 2.4-0.4 5-1 7.4-1.2 2.4-0.4 5-0.6 7.6-1 2.6-0.2 5-0.4 7.6-0.6 2.6-0.2 5-0.2 7.6-0.2 2.6 0 5 0 7.6 0.2 2.6 0.2 5 0.4 7.6 0.6 2.6 0.2 5 0.6 7.6 1 2.4 0.4 5 0.8 7.4 1.2 2.4 0.4 5 1 7.4 1.6 2.4 0.6 4.8 1.2 7.2 2l7.2 2.4c2.4 0.8 4.8 1.8 7 2.8 2.4 1 4.6 2 7 3 2.2 1 4.6 2.2 6.8 3.4 2.2 1.2 4.4 2.4 6.6 3.8 2.2 1.2 4.2 2.6 6.4 4 2 1.4 4.2 2.8 6.2 4.4 2 1.4 4 3 6 4.6 2 1.6 3.8 3.2 5.8 5 1.8 1.6 3.6 3.4 5.4 5.2 1.8 1.8 3.6 3.6 5.2 5.4 1.6 1.8 3.4 3.8 5 5.6s3.2 4 4.6 6c1.6 2 3 4 4.4 6.2 1.4 2 2.8 4.2 4 6.4 1.2 2.2 2.6 4.4 3.8 6.6 1.2 2.2 2.4 4.4 3.4 6.8 1 2.2 2.2 4.6 3 6.8 1 2.4 1.8 4.6 2.8 7l2.4 7.2c0.8 2.4 1.4 4.8 2 7.2 0.6 2.4 1.2 4.8 1.6 7.4 0.4 2.4 1 5 1.2 7.4 0.4 2.4 0.6 5 1 7.4 0.2 2.4 0.4 5 0.6 7.6 0.2 2.6 0.2 5 0.2 7.6 0 2.6 0 5-0.2 7.6-0.2 2.6-0.4 5-0.6 7.6-0.2 2.4-0.6 5-1 7.4-0.4 2.4-0.8 5-1.2 7.4-0.4 2.4-1 5-1.6 7.4-0.6 2.4-1.2 4.8-2 7.2l-2.4 7.2c-0.8 2.4-1.8 4.6-2.8 7-1 2.4-2 4.6-3 6.8s-2.2 4.6-3.4 6.8c-1.2 2.2-2.4 4.4-3.8 6.6s-2.6 4.2-4 6.4c-1.4 2-2.8 4.2-4.4 6.2-1.6 2-3 4-4.6 6-1.6 2-3.2 3.8-5 5.6-1.6 1.8-3.4 3.6-5.2 5.4-1.8 1.8-3.6 3.6-5.4 5.2-1.8 1.6-3.8 3.4-5.8 5s-4 3.2-6 4.6c-2 1.4-4 3-6.2 4.4-2 1.4-4.2 2.8-6.4 4-2.2 1.2-4.4 2.6-6.6 3.8-2.2 1.2-4.4 2.4-6.8 3.4-2.2 1-4.6 2-7 3s-4.6 1.8-7 2.8l-7.2 2.4c-2.4 0.8-4.8 1.4-7.2 2-2.4 0.6-5 1.2-7.4 1.6-2.4 0.4-5 1-7.4 1.2-2.4 0.4-5 0.6-7.6 1-2.6 0.2-5 0.4-7.6 0.6-2.6 0-5 0.2-7.6 0.2zM91.6 538.4c0-2.6 0-5 0.2-7.6 0.2-2.6 0.4-5 0.6-7.6 0.2-2.4 0.6-5 1-7.4 0.4-2.4 0.8-5 1.2-7.4 0.4-2.4 1-5 1.6-7.4 0.6-2.4 1.2-4.8 2-7.2l2.4-7.2c0.8-2.4 1.8-4.8 2.8-7 1-2.4 2-4.6 3-6.8s2.2-4.6 3.4-6.8c1.2-2.2 2.4-4.4 3.8-6.6 1.2-2.2 2.6-4.2 4-6.4 1.4-2 2.8-4.2 4.4-6.2 1.6-2 3-4 4.6-6 1.6-2 3.2-3.8 5-5.6 1.6-1.8 3.4-3.6 5.2-5.4 1.8-1.8 3.6-3.6 5.4-5.2 1.8-1.6 3.8-3.4 5.8-5s4-3.2 6-4.6c2-1.4 4-3 6.2-4.4 2-1.4 4.2-2.8 6.4-4 2.2-1.2 4.4-2.6 6.6-3.8 2.2-1.2 4.4-2.4 6.8-3.4 2.2-1 4.6-2 7-3 2.4-1 4.6-1.8 7-2.8l7.2-2.4c2.4-0.8 4.8-1.4 7.2-2 2.4-0.6 5-1.2 7.4-1.6 2.4-0.4 5-1 7.4-1.2 2.4-0.4 5-0.6 7.6-1 2.6-0.2 5-0.4 7.6-0.6 2.6-0.2 5-0.2 7.6-0.2 2.6 0 5 0 7.6 0.2 2.6 0.2 5 0.4 7.6 0.6 2.6 0.2 5 0.6 7.6 1 2.4 0.4 5 0.8 7.4 1.2 2.4 0.4 5 1 7.4 1.6 2.4 0.6 4.8 1.2 7.2 2l7.2 2.4c2.4 0.8 4.8 1.8 7 2.8 2.4 1 4.6 2 7 3 2.2 1 4.6 2.2 6.8 3.4 2.2 1.2 4.4 2.4 6.6 3.8 2.2 1.2 4.2 2.6 6.4 4 2 1.4 4.2 2.8 6.2 4.4 2 1.4 4 3 6 4.6 2 1.6 3.8 3.2 5.8 5 1.8 1.6 3.6 3.4 5.4 5.2 1.8 1.8 3.6 3.6 5.2 5.4 1.6 1.8 3.4 3.8 5 5.6 1.6 2 3.2 4 4.6 6 1.6 2 3 4 4.4 6.2 1.4 2 2.8 4.2 4 6.4 1.2 2.2 2.6 4.4 3.8 6.6 1.2 2.2 2.4 4.4 3.4 6.8 1 2.2 2.2 4.6 3 6.8 1 2.4 1.8 4.6 2.8 7l2.4 7.2c0.8 2.4 1.4 4.8 2 7.2 0.6 2.4 1.2 4.8 1.6 7.4 0.4 2.4 1 5 1.2 7.4 0.4 2.4 0.6 5 1 7.4 0.2 2.4 0.4 5 0.6 7.6 0.2 2.6 0.2 5 0.2 7.6 0 2.6 0 5-0.2 7.6-0.2 2.6-0.4 5-0.6 7.6-0.2 2.4-0.6 5-1 7.4-0.4 2.4-0.8 5-1.2 7.4-0.4 2.4-1 5-1.6 7.4-0.6 2.4-1.2 4.8-2 7.2l-2.4 7.2c-0.8 2.4-1.8 4.8-2.8 7-1 2.4-2 4.6-3 6.8s-2.2 4.6-3.4 6.8c-1.2 2.2-2.4 4.4-3.8 6.6-1.2 2.2-2.6 4.2-4 6.4-1.4 2-2.8 4.2-4.4 6.2-1.6 2-3 4-4.6 6-1.6 2-3.2 3.8-5 5.6-1.6 1.8-3.4 3.6-5.2 5.4-1.8 1.8-3.6 3.6-5.4 5.2-1.8 1.6-3.8 3.4-5.8 5s-4 3.2-6 4.6c-2 1.4-4 3-6.2 4.4-2 1.4-4.2 2.8-6.4 4-2.2 1.2-4.4 2.6-6.6 3.8s-4.4 2.4-6.8 3.4c-2.2 1-4.6 2-7 3-2.4 1-4.6 1.8-7 2.8l-7.2 2.4c-2.4 0.8-4.8 1.4-7.2 2-2.4 0.6-5 1.2-7.4 1.6-2.4 0.4-5 1-7.4 1.2-2.4 0.4-5 0.6-7.6 1-2.6 0.2-5 0.4-7.6 0.6-2.6 0.2-5 0.2-7.6 0.2-2.6 0-5 0-7.6-0.2-2.6-0.2-5-0.4-7.6-0.6-2.6-0.2-5-0.6-7.6-1-2.4-0.4-5-0.8-7.4-1.2-2.4-0.4-5-1-7.4-1.6-2.4-0.6-4.8-1.2-7.2-2l-7.2-2.4c-2.4-0.8-4.8-1.8-7-2.8-2.4-1-4.6-2-7-3-2.2-1-4.6-2.2-6.8-3.4-2.2-1.2-4.4-2.4-6.6-3.8-2.2-1.2-4.2-2.6-6.4-4-2-1.4-4.2-2.8-6.2-4.4s-4-3-6-4.6c-2-1.6-3.8-3.2-5.8-5-1.8-1.6-3.6-3.4-5.4-5.2-1.8-1.8-3.6-3.6-5.2-5.4-1.6-1.8-3.4-3.8-5-5.6-1.6-2-3.2-4-4.6-6-1.6-2-3-4-4.4-6.2-1.4-2-2.8-4.2-4-6.4-1.2-2.2-2.6-4.4-3.8-6.6-1.2-2.2-2.4-4.4-3.4-6.8-1-2.2-2.2-4.6-3-6.8-1-2.4-1.8-4.6-2.8-7s-1.6-4.8-2.4-7.2c-0.8-2.4-1.4-4.8-2-7.2-0.6-2.4-1.2-4.8-1.6-7.4-0.4-2.4-1-5-1.4-7.4-0.4-2.4-0.6-5-1-7.4-0.2-2.4-0.4-5-0.6-7.6s0-5 0-7.6zM779 294c-5.8 0-11.6 0.2-17.2 0.6-5.8 0.4-11.4 1-17.2 1.8-5.8 0.8-11.4 1.8-17 3s-11.2 2.6-16.8 4.2c-5.6 1.6-11 3.4-16.4 5.4-5.4 2-10.8 4.2-16 6.4-5.2 2.4-10.4 4.8-15.6 7.6s-10 5.6-15 8.6c-4.8 3-9.6 6.2-14.2 9.6-4.6 3.4-9.2 7-13.6 10.6-4.4 3.8-8.6 7.6-12.8 11.6-4.2 4-8.2 8.2-12 12.4-3.8 4.2-7.6 8.6-11 13.2-3.6 4.6-6.8 9.2-10 14-3.2 4.8-6.2 9.6-9 14.6s-5.6 10-8 15.2c-2.4 5.2-4.8 10.4-7 15.8s-4 10.8-5.8 16.2c-1.8 5.4-3.2 11-4.6 16.6-1.4 5.6-2.4 11.2-3.4 16.8-1 5.6-1.6 11.4-2.2 17s-0.8 11.4-1 17.2 0 11.4 0.2 17.2c0.2 5.8 0.8 11.4 1.4 17.2 0.6 5.6 1.6 11.4 2.6 17s2.4 11.2 3.8 16.8c1.4 5.6 3.2 11 5 16.4 1.8 5.4 3.8 10.8 6.2 16s4.6 10.4 7.2 15.6c2.6 5.2 5.4 10.2 8.4 15 3 5 6 9.8 9.4 14.4 3.2 4.8 6.8 9.2 10.4 13.8h-150.6c2.8-3.6 5.6-7.2 8.4-11l7.8-11.4c2.4-3.8 4.8-7.8 7-11.8 2.2-4 4.4-8 6.4-12.2 2-4.2 4-8.2 5.6-12.6 1.8-4.2 3.4-8.4 5-12.8s3-8.6 4.2-13l3.6-13.2c1-4.4 2-9 2.8-13.4 0.8-4.6 1.4-9 2-13.6 0.6-4.6 1-9.2 1.2-13.6 0.2-4.6 0.4-9.2 0.4-13.8 0-4.6 0-9.2-0.4-13.8-0.2-4.6-0.6-9.2-1.2-13.6-0.4-4.6-1.2-9-1.8-13.6-0.8-4.6-1.6-9-2.6-13.4s-2.2-9-3.4-13.4c-1.2-4.4-2.6-8.8-4.2-13-1.6-4.4-3.2-8.6-4.8-12.8-1.8-4.2-3.6-8.4-5.6-12.6-2-4.2-4-8.2-6.2-12.2s-4.6-8-7-11.8c-2.4-3.8-5-7.6-7.6-11.4-2.6-3.8-5.4-7.4-8.2-11-2.8-3.6-5.8-7-8.8-10.6a222.144 222.144 0 0 0-30-28.2c-3.6-2.8-7.2-5.6-11-8.2s-7.6-5.2-11.4-7.6c-3.8-2.4-7.8-4.8-11.8-7-4-2.2-8.2-4.4-12.2-6.4-4.2-2-8.4-3.8-12.6-5.6-4.2-1.8-8.6-3.4-12.8-5-4.4-1.6-8.8-3-13.2-4.2-4.4-1.2-8.8-2.4-13.4-3.4-4.4-1-9-2-13.6-2.8-4.6-0.8-9-1.4-13.6-2-4.6-0.6-9.2-1-13.8-1.2-4.6-0.2-9.2-0.4-13.8-0.4-4.6 0-9.2 0.2-13.8 0.4-4.6 0.2-9.2 0.6-13.8 1.2-4.6 0.6-9.2 1.2-13.6 1.8-4.6 0.8-9 1.6-13.6 2.6-4.4 1-9 2.2-13.4 3.4-4.4 1.2-8.8 2.6-13.2 4.2-4.4 1.6-8.6 3.2-13 4.8-4.2 1.8-8.4 3.6-12.6 5.6-4.2 2-8.2 4-12.2 6.2s-8 4.6-12 7c-4 2.4-7.8 5-11.4 7.6-3.8 2.6-7.4 5.4-11 8.2a222.144 222.144 0 0 0-30 28.2c-3 3.4-6 6.8-9 10.4-2.8 3.6-5.6 7.2-8.4 11-2.6 3.8-5.2 7.6-7.6 11.4-2.4 3.8-4.8 7.8-7 11.8-2.2 4-4.4 8-6.4 12.2-2 4.2-3.8 8.2-5.6 12.6-1.8 4.2-3.4 8.4-5 12.8s-3 8.6-4.2 13c-1.2 4.4-2.4 8.8-3.4 13.2-1 4.4-2 9-2.8 13.4-0.8 4.6-1.4 9-2 13.6-0.6 4.6-1 9.2-1.2 13.6-0.2 4.6-0.4 9.2-0.4 13.8 0 4.6 0.2 9.2 0.4 13.8s0.6 9.2 1.2 13.6c0.6 4.6 1.2 9 2 13.6s1.6 9 2.6 13.4 2.2 8.8 3.4 13.2c1.2 4.4 2.6 8.8 4.2 13 1.6 4.4 3.2 8.6 5 12.8 1.8 4.2 3.6 8.4 5.6 12.6 2 4.2 4.2 8.2 6.4 12.2s4.6 8 7 11.8c2.4 3.8 5 7.6 7.6 11.4 2.6 3.8 5.4 7.4 8.2 11 2.8 3.6 5.8 7 9 10.4a222.144 222.144 0 0 0 30 28.2c3.6 2.8 7.2 5.6 11 8.2 3.8 2.6 7.6 5.2 11.4 7.6 3.8 2.4 7.8 4.8 11.8 7 4 2.2 8.2 4.4 12.2 6.2 4.2 2 8.4 3.8 12.6 5.6 4.2 1.8 8.6 3.4 12.8 4.8 4.4 1.6 8.8 2.8 13.2 4.2 4.4 1.2 8.8 2.4 13.4 3.4s9 2 13.6 2.6c4.6 0.8 9 1.4 13.6 2 4.6 0.6 9.2 0.8 13.8 1.2 4.6 0.2 9.2 0.4 13.8 0.4h533.2c4 0 8 0 12-0.2s8-0.4 12-0.8 8-0.8 12-1.4c4-0.6 8-1.2 11.8-2 4-0.8 7.8-1.6 11.8-2.6 4-1 7.8-2 11.6-3.2 3.8-1.2 7.6-2.4 11.4-3.8 3.8-1.4 7.6-2.8 11.2-4.4 3.8-1.6 7.4-3.2 11-4.8l10.8-5.4c3.6-1.8 7-3.8 10.4-6 3.4-2 6.8-4.2 10.2-6.4 3.4-2.2 6.6-4.6 9.8-7 3.2-2.4 6.4-4.8 9.6-7.4 3.2-2.6 6.2-5.2 9.2-7.8 3-2.6 5.8-5.4 8.8-8.2s5.6-5.8 8.4-8.6c2.8-3 5.4-6 7.8-9 2.6-3 5-6.2 7.4-9.4 2.4-3.2 4.8-6.4 7-9.8 2.2-3.4 4.4-6.8 6.4-10.2s4-7 6-10.4c1.8-3.6 3.8-7.2 5.4-10.8 1.8-3.6 3.4-7.2 4.8-11 1.6-3.6 3-7.4 4.4-11.2 1.4-3.8 2.6-7.6 3.8-11.4 1.2-3.8 2.2-7.6 3.2-11.6 1-3.8 1.8-7.8 2.6-11.8s1.4-7.8 2-11.8c0.6-4 1-8 1.4-12 0.4-4 0.6-8 0.8-12 0.2-4 0.2-8 0.2-12s0-8-0.2-12-0.4-8-0.8-12-0.8-8-1.4-12c-0.6-4-1.2-7.8-2-11.8-0.8-4-1.6-7.8-2.6-11.8-1-3.8-2-7.8-3.2-11.6-1.2-3.8-2.4-7.6-3.8-11.4-1.4-3.8-2.8-7.4-4.4-11.2-1.6-3.6-3.2-7.4-4.8-11l-5.4-10.8c-1.8-3.6-3.8-7-6-10.4-2-3.4-4.2-6.8-6.4-10.2-2.2-3.4-4.6-6.6-7-9.8-2.4-3.2-4.8-6.4-7.4-9.4-2.6-3-5.2-6.2-7.8-9-2.8-3-5.4-5.8-8.4-8.6-2.8-2.8-5.8-5.6-8.8-8.2-3-2.6-6-5.2-9.2-7.8-3.2-2.6-6.2-5-9.6-7.4-3.2-2.4-6.6-4.6-9.8-7-3.4-2.2-6.8-4.4-10.2-6.4-3.4-2-7-4-10.4-6l-10.8-5.4c-3.6-1.8-7.4-3.4-11-4.8-3.8-1.6-7.4-3-11.2-4.4-3.8-1.4-7.6-2.6-11.4-3.8-3.8-1.2-7.8-2.2-11.6-3.2-4-1-7.8-1.8-11.8-2.6-4-0.8-8-1.4-11.8-2-4-0.6-8-1-12-1.4-4-0.4-8-0.6-12-0.8-4 0.2-8 0.2-12 0.2z" p-id="2833" fill="#e6e6e6"></path></svg>